<svg xmlns="http://www.w3.org/2000/svg" width="21" height="21" viewBox="0 0 21 21" fill="none">
  <path d="M10.4219 15.5933C10.6877 15.4374 11.017 15.4374 11.2827 15.5933L14.3559 17.3953C15.0029 17.7748 15.7887 17.1921 15.6136 16.4627L14.8157 13.1398C14.7405 12.8265 14.8487 12.4976 15.0952 12.2902L17.7324 10.0705C18.3135 9.58141 18.0114 8.6339 17.2544 8.57151L13.7362 8.28151C13.4241 8.25579 13.1514 8.06074 13.0262 7.77374L11.6322 4.57833C11.3352 3.89747 10.3695 3.89747 10.0725 4.57833L8.67848 7.77374C8.55328 8.06074 8.28056 8.25579 7.9685 8.28151L4.45023 8.57151C3.69332 8.6339 3.39116 9.58141 3.97223 10.0705L6.60951 12.2902C6.85601 12.4976 6.96418 12.8265 6.88896 13.1398L6.09107 16.4627C5.91594 17.1921 6.70175 17.7748 7.34882 17.3953L10.4219 15.5933Z" fill="#F47900"/>
</svg>